<mxfile host="Electron" agent="Mozilla/5.0 (Windows NT 10.0; Win64; x64) AppleWebKit/537.36 (KHTML, like Gecko) draw.io/26.2.2 Chrome/134.0.6998.178 Electron/35.1.2 Safari/537.36" version="26.2.2">
  <diagram id="Lb4HRA_LbFH50GSRpndC" name="PÃ¡gina-1">
    <mxGraphModel dx="874" dy="537" grid="1" gridSize="10" guides="1" tooltips="1" connect="1" arrows="1" fold="1" page="1" pageScale="1" pageWidth="827" pageHeight="1169" math="0" shadow="0">
      <root>
        <mxCell id="0" />
        <mxCell id="1" parent="0" />
        <mxCell id="hif6xNTrNvLizvP5ZIw0-11" style="edgeStyle=orthogonalEdgeStyle;rounded=0;orthogonalLoop=1;jettySize=auto;html=1;entryX=0.5;entryY=0;entryDx=0;entryDy=0;" parent="1" source="gps8GryWC4qN5R_oKgp6-1" target="gps8GryWC4qN5R_oKgp6-2" edge="1">
          <mxGeometry relative="1" as="geometry" />
        </mxCell>
        <mxCell id="gps8GryWC4qN5R_oKgp6-1" value="Inicio" style="rounded=1;whiteSpace=wrap;html=1;fillColor=#a20025;fontColor=#ffffff;strokeColor=#6F0000;" parent="1" vertex="1">
          <mxGeometry x="385" y="40" width="120" height="60" as="geometry" />
        </mxCell>
        <mxCell id="gps8GryWC4qN5R_oKgp6-2" value="Excluir venda" style="rounded=0;whiteSpace=wrap;html=1;fillColor=#a20025;fontColor=#ffffff;strokeColor=#6F0000;" parent="1" vertex="1">
          <mxGeometry x="385" y="160" width="120" height="60" as="geometry" />
        </mxCell>
        <mxCell id="hif6xNTrNvLizvP5ZIw0-13" style="edgeStyle=orthogonalEdgeStyle;rounded=0;orthogonalLoop=1;jettySize=auto;html=1;entryX=0.5;entryY=0;entryDx=0;entryDy=0;" parent="1" target="gps8GryWC4qN5R_oKgp6-115" edge="1">
          <mxGeometry relative="1" as="geometry">
            <mxPoint x="445" y="220" as="sourcePoint" />
          </mxGeometry>
        </mxCell>
        <mxCell id="hif6xNTrNvLizvP5ZIw0-14" style="edgeStyle=orthogonalEdgeStyle;rounded=0;orthogonalLoop=1;jettySize=auto;html=1;entryX=0.5;entryY=0;entryDx=0;entryDy=0;" parent="1" source="gps8GryWC4qN5R_oKgp6-115" target="QyLqrajHiVCN0jX9JTwc-1" edge="1">
          <mxGeometry relative="1" as="geometry" />
        </mxCell>
        <mxCell id="gps8GryWC4qN5R_oKgp6-115" value="Movimentar financeiro - Excluir" style="rounded=0;whiteSpace=wrap;html=1;fillColor=#a20025;fontColor=#ffffff;strokeColor=#6F0000;" parent="1" vertex="1">
          <mxGeometry x="385" y="280" width="120" height="60" as="geometry" />
        </mxCell>
        <mxCell id="gps8GryWC4qN5R_oKgp6-125" value="&lt;font style=&quot;font-size: 18px&quot;&gt;UC-007 Excluir venda&lt;/font&gt;" style="text;html=1;align=center;verticalAlign=middle;resizable=0;points=[];autosize=1;strokeColor=#666666;fillColor=#f5f5f5;fontColor=#333333;" parent="1" vertex="1">
          <mxGeometry x="595" y="20" width="190" height="20" as="geometry" />
        </mxCell>
        <mxCell id="QyLqrajHiVCN0jX9JTwc-1" value="Fim" style="rounded=1;whiteSpace=wrap;html=1;fillColor=#a20025;fontColor=#ffffff;strokeColor=#6F0000;" parent="1" vertex="1">
          <mxGeometry x="385" y="404.5" width="120" height="60" as="geometry" />
        </mxCell>
      </root>
    </mxGraphModel>
  </diagram>
</mxfile>
